<mxfile host="app.diagrams.net" modified="2023-06-14T17:02:53.540Z" agent="Mozilla/5.0 (Windows NT 10.0; Win64; x64) AppleWebKit/537.36 (KHTML, like Gecko) Chrome/114.0.0.0 Safari/537.36" etag="UQfLy2cGMAuy7rnDOZmF" version="21.3.8" type="device">
  <diagram name="Page-1" id="xlsgBr4HWe5AIKhZQg6L">
    <mxGraphModel dx="3229" dy="3041" grid="1" gridSize="10" guides="1" tooltips="1" connect="1" arrows="1" fold="1" page="1" pageScale="1" pageWidth="827" pageHeight="1169" background="#ffffff" math="0" shadow="0">
      <root>
        <mxCell id="0" />
        <mxCell id="1" parent="0" />
        <mxCell id="7UUg1LgOUYRZWabVoT0W-16" style="edgeStyle=orthogonalEdgeStyle;rounded=0;orthogonalLoop=1;jettySize=auto;html=1;entryX=0.5;entryY=0;entryDx=0;entryDy=0;endArrow=none;endFill=0;" parent="1" source="1eSHTBbk4jiNIUlehk3F-1" target="7UUg1LgOUYRZWabVoT0W-15" edge="1">
          <mxGeometry relative="1" as="geometry">
            <Array as="points">
              <mxPoint x="-850" y="-1040" />
            </Array>
          </mxGeometry>
        </mxCell>
        <mxCell id="7UUg1LgOUYRZWabVoT0W-105" value="&lt;font style=&quot;font-size: 18px;&quot;&gt;(0,N)&lt;/font&gt;" style="edgeLabel;html=1;align=center;verticalAlign=middle;resizable=0;points=[];" parent="7UUg1LgOUYRZWabVoT0W-16" vertex="1" connectable="0">
          <mxGeometry x="0.8496" y="3" relative="1" as="geometry">
            <mxPoint as="offset" />
          </mxGeometry>
        </mxCell>
        <mxCell id="7UUg1LgOUYRZWabVoT0W-34" style="edgeStyle=orthogonalEdgeStyle;rounded=0;orthogonalLoop=1;jettySize=auto;html=1;endArrow=none;endFill=0;" parent="1" source="1eSHTBbk4jiNIUlehk3F-1" target="1eSHTBbk4jiNIUlehk3F-19" edge="1">
          <mxGeometry relative="1" as="geometry" />
        </mxCell>
        <mxCell id="xPjzsnHJoCpUdI3gdzRh-5" value="&lt;font style=&quot;font-size: 18px;&quot;&gt;(0,N)&lt;/font&gt;" style="edgeLabel;html=1;align=center;verticalAlign=middle;resizable=0;points=[];" parent="7UUg1LgOUYRZWabVoT0W-34" vertex="1" connectable="0">
          <mxGeometry x="-0.2965" y="-4" relative="1" as="geometry">
            <mxPoint x="76" y="6" as="offset" />
          </mxGeometry>
        </mxCell>
        <mxCell id="4FoowqRNrJ6sHLx4bCnh-7" style="edgeStyle=orthogonalEdgeStyle;rounded=0;orthogonalLoop=1;jettySize=auto;html=1;endArrow=none;endFill=0;" parent="1" source="1eSHTBbk4jiNIUlehk3F-1" target="4FoowqRNrJ6sHLx4bCnh-6" edge="1">
          <mxGeometry relative="1" as="geometry" />
        </mxCell>
        <mxCell id="iQAtcwxZINuC2XT9F243-6" style="edgeStyle=orthogonalEdgeStyle;rounded=0;orthogonalLoop=1;jettySize=auto;html=1;endArrow=none;endFill=0;" parent="1" source="1eSHTBbk4jiNIUlehk3F-1" target="iQAtcwxZINuC2XT9F243-4" edge="1">
          <mxGeometry relative="1" as="geometry">
            <Array as="points">
              <mxPoint x="-900" y="-1050" />
              <mxPoint x="-900" y="-1050" />
            </Array>
          </mxGeometry>
        </mxCell>
        <mxCell id="iQAtcwxZINuC2XT9F243-9" value="&lt;font style=&quot;font-size: 18px;&quot;&gt;(0,N)&lt;/font&gt;" style="edgeLabel;html=1;align=center;verticalAlign=middle;resizable=0;points=[];" parent="iQAtcwxZINuC2XT9F243-6" vertex="1" connectable="0">
          <mxGeometry x="0.6452" y="-2" relative="1" as="geometry">
            <mxPoint as="offset" />
          </mxGeometry>
        </mxCell>
        <mxCell id="1eSHTBbk4jiNIUlehk3F-1" value="UTENTE" style="rounded=0;whiteSpace=wrap;html=1;" parent="1" vertex="1">
          <mxGeometry x="-460" y="-1080" width="120" height="60" as="geometry" />
        </mxCell>
        <mxCell id="1eSHTBbk4jiNIUlehk3F-2" value="GRUPPO" style="rounded=0;whiteSpace=wrap;html=1;" parent="1" vertex="1">
          <mxGeometry x="120" y="-920" width="120" height="60" as="geometry" />
        </mxCell>
        <mxCell id="7UUg1LgOUYRZWabVoT0W-35" style="edgeStyle=orthogonalEdgeStyle;rounded=0;orthogonalLoop=1;jettySize=auto;html=1;entryX=0;entryY=0.5;entryDx=0;entryDy=0;endArrow=none;endFill=0;" parent="1" source="7UUg1LgOUYRZWabVoT0W-36" target="1eSHTBbk4jiNIUlehk3F-2" edge="1">
          <mxGeometry relative="1" as="geometry" />
        </mxCell>
        <mxCell id="xPjzsnHJoCpUdI3gdzRh-12" value="&lt;font style=&quot;font-size: 18px;&quot;&gt;(1,1)&lt;/font&gt;" style="edgeLabel;html=1;align=center;verticalAlign=middle;resizable=0;points=[];" parent="7UUg1LgOUYRZWabVoT0W-35" vertex="1" connectable="0">
          <mxGeometry x="-0.2877" relative="1" as="geometry">
            <mxPoint as="offset" />
          </mxGeometry>
        </mxCell>
        <mxCell id="1eSHTBbk4jiNIUlehk3F-5" value="STORIA" style="rounded=0;whiteSpace=wrap;html=1;" parent="1" vertex="1">
          <mxGeometry x="-590" y="-220" width="120" height="60" as="geometry" />
        </mxCell>
        <mxCell id="7UUg1LgOUYRZWabVoT0W-63" style="edgeStyle=orthogonalEdgeStyle;rounded=0;orthogonalLoop=1;jettySize=auto;html=1;entryX=1;entryY=0.5;entryDx=0;entryDy=0;endArrow=none;endFill=0;" parent="1" source="1eSHTBbk4jiNIUlehk3F-7" target="1eSHTBbk4jiNIUlehk3F-44" edge="1">
          <mxGeometry relative="1" as="geometry" />
        </mxCell>
        <mxCell id="xPjzsnHJoCpUdI3gdzRh-3" value="&lt;font style=&quot;font-size: 18px;&quot;&gt;(0,N)&lt;/font&gt;" style="edgeLabel;html=1;align=center;verticalAlign=middle;resizable=0;points=[];" parent="7UUg1LgOUYRZWabVoT0W-63" vertex="1" connectable="0">
          <mxGeometry x="0.831" y="2" relative="1" as="geometry">
            <mxPoint x="25" y="-2" as="offset" />
          </mxGeometry>
        </mxCell>
        <mxCell id="1eSHTBbk4jiNIUlehk3F-7" value="OPERA D&#39;ARTE" style="rounded=0;whiteSpace=wrap;html=1;" parent="1" vertex="1">
          <mxGeometry x="250" y="-365" width="120" height="60" as="geometry" />
        </mxCell>
        <mxCell id="7UUg1LgOUYRZWabVoT0W-95" style="edgeStyle=orthogonalEdgeStyle;rounded=0;orthogonalLoop=1;jettySize=auto;html=1;entryX=0;entryY=0.5;entryDx=0;entryDy=0;endArrow=none;endFill=0;" parent="1" source="1eSHTBbk4jiNIUlehk3F-8" target="7UUg1LgOUYRZWabVoT0W-97" edge="1">
          <mxGeometry relative="1" as="geometry">
            <mxPoint x="-350" y="-460" as="targetPoint" />
          </mxGeometry>
        </mxCell>
        <mxCell id="7UUg1LgOUYRZWabVoT0W-109" value="&lt;span style=&quot;font-size: 18px;&quot;&gt;(1,1)&lt;/span&gt;" style="edgeLabel;html=1;align=center;verticalAlign=middle;resizable=0;points=[];" parent="7UUg1LgOUYRZWabVoT0W-95" vertex="1" connectable="0">
          <mxGeometry x="0.377" relative="1" as="geometry">
            <mxPoint as="offset" />
          </mxGeometry>
        </mxCell>
        <mxCell id="1eSHTBbk4jiNIUlehk3F-8" value="SENSAZIONE" style="rounded=0;whiteSpace=wrap;html=1;" parent="1" vertex="1">
          <mxGeometry x="-710" y="-560" width="120" height="60" as="geometry" />
        </mxCell>
        <mxCell id="7UUg1LgOUYRZWabVoT0W-48" style="edgeStyle=orthogonalEdgeStyle;rounded=0;orthogonalLoop=1;jettySize=auto;html=1;endArrow=none;endFill=0;" parent="1" source="1eSHTBbk4jiNIUlehk3F-11" target="1eSHTBbk4jiNIUlehk3F-38" edge="1">
          <mxGeometry relative="1" as="geometry" />
        </mxCell>
        <mxCell id="xPjzsnHJoCpUdI3gdzRh-17" value="&lt;font style=&quot;font-size: 18px;&quot;&gt;(1,N)&lt;/font&gt;" style="edgeLabel;html=1;align=center;verticalAlign=middle;resizable=0;points=[];" parent="7UUg1LgOUYRZWabVoT0W-48" vertex="1" connectable="0">
          <mxGeometry x="0.3016" y="2" relative="1" as="geometry">
            <mxPoint x="-2" y="-9" as="offset" />
          </mxGeometry>
        </mxCell>
        <mxCell id="1eSHTBbk4jiNIUlehk3F-11" value="AUTORE" style="rounded=0;whiteSpace=wrap;html=1;" parent="1" vertex="1">
          <mxGeometry x="250" y="-700" width="120" height="60" as="geometry" />
        </mxCell>
        <mxCell id="1eSHTBbk4jiNIUlehk3F-21" style="edgeStyle=orthogonalEdgeStyle;rounded=0;orthogonalLoop=1;jettySize=auto;html=1;exitX=1;exitY=0.5;exitDx=0;exitDy=0;entryX=0.5;entryY=0;entryDx=0;entryDy=0;endArrow=none;endFill=0;" parent="1" source="1eSHTBbk4jiNIUlehk3F-19" target="1eSHTBbk4jiNIUlehk3F-2" edge="1">
          <mxGeometry relative="1" as="geometry">
            <Array as="points">
              <mxPoint x="-3" y="-1040" />
              <mxPoint x="-3" y="-1050" />
              <mxPoint x="130" y="-1050" />
              <mxPoint x="130" y="-920" />
            </Array>
          </mxGeometry>
        </mxCell>
        <mxCell id="xPjzsnHJoCpUdI3gdzRh-6" value="&lt;font style=&quot;font-size: 18px;&quot;&gt;(0,N)&lt;/font&gt;" style="edgeLabel;html=1;align=center;verticalAlign=middle;resizable=0;points=[];" parent="1eSHTBbk4jiNIUlehk3F-21" vertex="1" connectable="0">
          <mxGeometry x="0.4655" y="-3" relative="1" as="geometry">
            <mxPoint as="offset" />
          </mxGeometry>
        </mxCell>
        <mxCell id="1eSHTBbk4jiNIUlehk3F-19" value="PARTECIPA" style="rhombus;whiteSpace=wrap;html=1;" parent="1" vertex="1">
          <mxGeometry x="-43" y="-1090" width="103" height="100" as="geometry" />
        </mxCell>
        <mxCell id="1eSHTBbk4jiNIUlehk3F-30" style="edgeStyle=orthogonalEdgeStyle;rounded=0;orthogonalLoop=1;jettySize=auto;html=1;exitX=0.5;exitY=1;exitDx=0;exitDy=0;endArrow=none;endFill=0;" parent="1" source="1eSHTBbk4jiNIUlehk3F-27" target="1eSHTBbk4jiNIUlehk3F-8" edge="1">
          <mxGeometry relative="1" as="geometry">
            <Array as="points">
              <mxPoint x="-660" y="-700" />
              <mxPoint x="-660" y="-700" />
            </Array>
          </mxGeometry>
        </mxCell>
        <mxCell id="7UUg1LgOUYRZWabVoT0W-108" value="&lt;font style=&quot;font-size: 18px;&quot;&gt;(1,1)&lt;/font&gt;" style="edgeLabel;html=1;align=center;verticalAlign=middle;resizable=0;points=[];" parent="1eSHTBbk4jiNIUlehk3F-30" vertex="1" connectable="0">
          <mxGeometry x="-0.1317" y="1" relative="1" as="geometry">
            <mxPoint as="offset" />
          </mxGeometry>
        </mxCell>
        <mxCell id="7UUg1LgOUYRZWabVoT0W-91" style="edgeStyle=orthogonalEdgeStyle;rounded=0;orthogonalLoop=1;jettySize=auto;html=1;endArrow=none;endFill=0;" parent="1" source="1eSHTBbk4jiNIUlehk3F-27" edge="1">
          <mxGeometry relative="1" as="geometry">
            <mxPoint x="-460" y="-1030" as="targetPoint" />
            <Array as="points">
              <mxPoint x="-660" y="-1030" />
              <mxPoint x="-462" y="-1030" />
            </Array>
          </mxGeometry>
        </mxCell>
        <mxCell id="7UUg1LgOUYRZWabVoT0W-103" value="&lt;font style=&quot;font-size: 18px;&quot;&gt;(0,N)&lt;/font&gt;" style="edgeLabel;html=1;align=center;verticalAlign=middle;resizable=0;points=[];" parent="7UUg1LgOUYRZWabVoT0W-91" vertex="1" connectable="0">
          <mxGeometry x="-0.7514" y="3" relative="1" as="geometry">
            <mxPoint as="offset" />
          </mxGeometry>
        </mxCell>
        <mxCell id="1eSHTBbk4jiNIUlehk3F-27" value="FORNISCE" style="rhombus;whiteSpace=wrap;html=1;" parent="1" vertex="1">
          <mxGeometry x="-700" y="-800" width="80" height="80" as="geometry" />
        </mxCell>
        <mxCell id="7UUg1LgOUYRZWabVoT0W-47" style="edgeStyle=orthogonalEdgeStyle;rounded=0;orthogonalLoop=1;jettySize=auto;html=1;exitX=1;exitY=0.5;exitDx=0;exitDy=0;entryX=0;entryY=0.5;entryDx=0;entryDy=0;endArrow=none;endFill=0;" parent="1" source="1eSHTBbk4jiNIUlehk3F-35" target="1eSHTBbk4jiNIUlehk3F-11" edge="1">
          <mxGeometry relative="1" as="geometry" />
        </mxCell>
        <mxCell id="xPjzsnHJoCpUdI3gdzRh-14" value="&lt;font style=&quot;font-size: 18px;&quot;&gt;(1,1)&lt;/font&gt;" style="edgeLabel;html=1;align=center;verticalAlign=middle;resizable=0;points=[];" parent="7UUg1LgOUYRZWabVoT0W-47" vertex="1" connectable="0">
          <mxGeometry x="0.4277" y="-4" relative="1" as="geometry">
            <mxPoint x="17" y="-4" as="offset" />
          </mxGeometry>
        </mxCell>
        <mxCell id="7UUg1LgOUYRZWabVoT0W-69" style="edgeStyle=orthogonalEdgeStyle;rounded=0;orthogonalLoop=1;jettySize=auto;html=1;entryX=0.5;entryY=1;entryDx=0;entryDy=0;endArrow=none;endFill=0;" parent="1" source="1eSHTBbk4jiNIUlehk3F-35" target="1eSHTBbk4jiNIUlehk3F-1" edge="1">
          <mxGeometry relative="1" as="geometry">
            <Array as="points">
              <mxPoint x="-400" y="-760" />
            </Array>
            <mxPoint x="-240" y="-860" as="targetPoint" />
          </mxGeometry>
        </mxCell>
        <mxCell id="xPjzsnHJoCpUdI3gdzRh-13" value="&lt;font style=&quot;font-size: 18px;&quot;&gt;(0,N)&lt;/font&gt;" style="edgeLabel;html=1;align=center;verticalAlign=middle;resizable=0;points=[];" parent="7UUg1LgOUYRZWabVoT0W-69" vertex="1" connectable="0">
          <mxGeometry x="-0.1788" y="-2" relative="1" as="geometry">
            <mxPoint as="offset" />
          </mxGeometry>
        </mxCell>
        <mxCell id="1eSHTBbk4jiNIUlehk3F-35" value="AGGIUNGE" style="rhombus;whiteSpace=wrap;html=1;" parent="1" vertex="1">
          <mxGeometry x="-43" y="-800" width="80" height="80" as="geometry" />
        </mxCell>
        <mxCell id="1eSHTBbk4jiNIUlehk3F-40" style="edgeStyle=orthogonalEdgeStyle;rounded=0;orthogonalLoop=1;jettySize=auto;html=1;exitX=0.5;exitY=1;exitDx=0;exitDy=0;entryX=0.5;entryY=0;entryDx=0;entryDy=0;endArrow=none;endFill=0;" parent="1" source="1eSHTBbk4jiNIUlehk3F-38" target="1eSHTBbk4jiNIUlehk3F-7" edge="1">
          <mxGeometry relative="1" as="geometry">
            <Array as="points">
              <mxPoint x="310" y="-450" />
              <mxPoint x="310" y="-450" />
            </Array>
          </mxGeometry>
        </mxCell>
        <mxCell id="xPjzsnHJoCpUdI3gdzRh-18" value="&lt;font style=&quot;font-size: 18px;&quot;&gt;(1,1)&lt;/font&gt;" style="edgeLabel;html=1;align=center;verticalAlign=middle;resizable=0;points=[];" parent="1eSHTBbk4jiNIUlehk3F-40" vertex="1" connectable="0">
          <mxGeometry x="0.2286" relative="1" as="geometry">
            <mxPoint y="-25" as="offset" />
          </mxGeometry>
        </mxCell>
        <mxCell id="1eSHTBbk4jiNIUlehk3F-38" value="REALIZZA" style="rhombus;whiteSpace=wrap;html=1;" parent="1" vertex="1">
          <mxGeometry x="270" y="-550" width="80" height="80" as="geometry" />
        </mxCell>
        <mxCell id="1eSHTBbk4jiNIUlehk3F-43" style="edgeStyle=orthogonalEdgeStyle;rounded=0;orthogonalLoop=1;jettySize=auto;html=1;exitX=1;exitY=0.5;exitDx=0;exitDy=0;entryX=0.188;entryY=0.001;entryDx=0;entryDy=0;endArrow=none;endFill=0;entryPerimeter=0;" parent="1" source="1eSHTBbk4jiNIUlehk3F-41" target="1eSHTBbk4jiNIUlehk3F-7" edge="1">
          <mxGeometry relative="1" as="geometry">
            <Array as="points">
              <mxPoint x="-270" y="-685" />
              <mxPoint x="-270" y="-590" />
              <mxPoint x="260" y="-590" />
              <mxPoint x="260" y="-365" />
            </Array>
          </mxGeometry>
        </mxCell>
        <mxCell id="xPjzsnHJoCpUdI3gdzRh-16" value="&lt;font style=&quot;font-size: 18px;&quot;&gt;(1,1)&lt;/font&gt;" style="edgeLabel;html=1;align=center;verticalAlign=middle;resizable=0;points=[];" parent="1eSHTBbk4jiNIUlehk3F-43" vertex="1" connectable="0">
          <mxGeometry x="0.5631" y="1" relative="1" as="geometry">
            <mxPoint as="offset" />
          </mxGeometry>
        </mxCell>
        <mxCell id="7UUg1LgOUYRZWabVoT0W-42" style="edgeStyle=orthogonalEdgeStyle;rounded=0;orthogonalLoop=1;jettySize=auto;html=1;endArrow=none;endFill=0;entryX=0.25;entryY=1;entryDx=0;entryDy=0;" parent="1" source="1eSHTBbk4jiNIUlehk3F-41" target="1eSHTBbk4jiNIUlehk3F-1" edge="1">
          <mxGeometry relative="1" as="geometry">
            <mxPoint x="-270" y="-860" as="targetPoint" />
            <Array as="points">
              <mxPoint x="-430" y="-710" />
            </Array>
          </mxGeometry>
        </mxCell>
        <mxCell id="xPjzsnHJoCpUdI3gdzRh-15" value="&lt;font style=&quot;font-size: 18px;&quot;&gt;(0,N)&lt;/font&gt;" style="edgeLabel;html=1;align=center;verticalAlign=middle;resizable=0;points=[];" parent="7UUg1LgOUYRZWabVoT0W-42" vertex="1" connectable="0">
          <mxGeometry x="-0.2428" y="3" relative="1" as="geometry">
            <mxPoint x="3" y="-19" as="offset" />
          </mxGeometry>
        </mxCell>
        <mxCell id="1eSHTBbk4jiNIUlehk3F-41" value="ARRICHISCE" style="rhombus;whiteSpace=wrap;html=1;" parent="1" vertex="1">
          <mxGeometry x="-470" y="-725" width="80" height="80" as="geometry" />
        </mxCell>
        <mxCell id="7UUg1LgOUYRZWabVoT0W-64" value="&lt;font style=&quot;font-size: 18px;&quot;&gt;(2,3)&lt;/font&gt;" style="edgeStyle=orthogonalEdgeStyle;rounded=0;orthogonalLoop=1;jettySize=auto;html=1;entryX=0.5;entryY=0;entryDx=0;entryDy=0;endArrow=none;endFill=0;" parent="1" source="1eSHTBbk4jiNIUlehk3F-44" target="1eSHTBbk4jiNIUlehk3F-5" edge="1">
          <mxGeometry relative="1" as="geometry" />
        </mxCell>
        <mxCell id="1eSHTBbk4jiNIUlehk3F-44" value="CONTIENE" style="rhombus;whiteSpace=wrap;html=1;" parent="1" vertex="1">
          <mxGeometry x="-570" y="-405" width="80" height="80" as="geometry" />
        </mxCell>
        <mxCell id="1eSHTBbk4jiNIUlehk3F-62" style="edgeStyle=orthogonalEdgeStyle;rounded=0;orthogonalLoop=1;jettySize=auto;html=1;exitX=0.5;exitY=1;exitDx=0;exitDy=0;entryX=0.08;entryY=0.016;entryDx=0;entryDy=0;endArrow=none;endFill=0;entryPerimeter=0;" parent="1" source="1eSHTBbk4jiNIUlehk3F-49" target="1eSHTBbk4jiNIUlehk3F-1" edge="1">
          <mxGeometry relative="1" as="geometry">
            <Array as="points">
              <mxPoint x="-480" y="-1115" />
              <mxPoint x="-480" y="-1095" />
              <mxPoint x="-470" y="-1095" />
              <mxPoint x="-470" y="-1100" />
              <mxPoint x="-450" y="-1100" />
            </Array>
          </mxGeometry>
        </mxCell>
        <mxCell id="1eSHTBbk4jiNIUlehk3F-49" value="nome" style="ellipse;whiteSpace=wrap;html=1;align=center;" parent="1" vertex="1">
          <mxGeometry x="-520" y="-1115" width="60" height="30" as="geometry" />
        </mxCell>
        <mxCell id="1eSHTBbk4jiNIUlehk3F-58" style="edgeStyle=orthogonalEdgeStyle;rounded=0;orthogonalLoop=1;jettySize=auto;html=1;exitX=0.5;exitY=1;exitDx=0;exitDy=0;entryX=0.75;entryY=0;entryDx=0;entryDy=0;endArrow=none;endFill=0;" parent="1" source="1eSHTBbk4jiNIUlehk3F-50" target="1eSHTBbk4jiNIUlehk3F-1" edge="1">
          <mxGeometry relative="1" as="geometry" />
        </mxCell>
        <mxCell id="1eSHTBbk4jiNIUlehk3F-50" value="genere" style="ellipse;whiteSpace=wrap;html=1;align=center;" parent="1" vertex="1">
          <mxGeometry x="-390" y="-1150" width="60" height="30" as="geometry" />
        </mxCell>
        <mxCell id="1eSHTBbk4jiNIUlehk3F-64" style="edgeStyle=orthogonalEdgeStyle;rounded=0;orthogonalLoop=1;jettySize=auto;html=1;exitX=0.5;exitY=1;exitDx=0;exitDy=0;endArrow=none;endFill=0;" parent="1" source="1eSHTBbk4jiNIUlehk3F-52" edge="1">
          <mxGeometry relative="1" as="geometry">
            <mxPoint x="-440" y="-1080" as="targetPoint" />
            <Array as="points">
              <mxPoint x="-440" y="-1120" />
              <mxPoint x="-440" y="-1080" />
            </Array>
          </mxGeometry>
        </mxCell>
        <mxCell id="1eSHTBbk4jiNIUlehk3F-52" value="data di nascita" style="ellipse;whiteSpace=wrap;html=1;align=center;" parent="1" vertex="1">
          <mxGeometry x="-473" y="-1150" width="60" height="30" as="geometry" />
        </mxCell>
        <mxCell id="1eSHTBbk4jiNIUlehk3F-97" style="edgeStyle=orthogonalEdgeStyle;rounded=0;orthogonalLoop=1;jettySize=auto;html=1;exitX=0;exitY=0.5;exitDx=0;exitDy=0;entryX=1;entryY=0.75;entryDx=0;entryDy=0;endArrow=none;endFill=0;" parent="1" source="1eSHTBbk4jiNIUlehk3F-55" target="1eSHTBbk4jiNIUlehk3F-5" edge="1">
          <mxGeometry relative="1" as="geometry">
            <Array as="points">
              <mxPoint x="-384" y="-170" />
              <mxPoint x="-470" y="-170" />
            </Array>
          </mxGeometry>
        </mxCell>
        <mxCell id="1eSHTBbk4jiNIUlehk3F-55" value="tempo fine" style="ellipse;whiteSpace=wrap;html=1;align=center;" parent="1" vertex="1">
          <mxGeometry x="-420" y="-180" width="80" height="30" as="geometry" />
        </mxCell>
        <mxCell id="7UUg1LgOUYRZWabVoT0W-14" style="edgeStyle=orthogonalEdgeStyle;rounded=0;orthogonalLoop=1;jettySize=auto;html=1;entryX=0.917;entryY=0;entryDx=0;entryDy=0;endArrow=none;endFill=0;entryPerimeter=0;" parent="1" target="1eSHTBbk4jiNIUlehk3F-1" edge="1">
          <mxGeometry relative="1" as="geometry">
            <mxPoint x="-330" y="-1105" as="sourcePoint" />
          </mxGeometry>
        </mxCell>
        <mxCell id="1eSHTBbk4jiNIUlehk3F-57" value="Email" style="ellipse;whiteSpace=wrap;html=1;align=center;fontStyle=4;fillColor=#00FF00;" parent="1" vertex="1">
          <mxGeometry x="-340" y="-1120" width="70" height="30" as="geometry" />
        </mxCell>
        <mxCell id="1eSHTBbk4jiNIUlehk3F-80" style="edgeStyle=orthogonalEdgeStyle;rounded=0;orthogonalLoop=1;jettySize=auto;html=1;exitX=0.5;exitY=0;exitDx=0;exitDy=0;entryX=0.25;entryY=1;entryDx=0;entryDy=0;endArrow=none;endFill=0;" parent="1" source="1eSHTBbk4jiNIUlehk3F-69" target="1eSHTBbk4jiNIUlehk3F-2" edge="1">
          <mxGeometry relative="1" as="geometry" />
        </mxCell>
        <mxCell id="1eSHTBbk4jiNIUlehk3F-69" value="nome" style="ellipse;whiteSpace=wrap;html=1;align=center;fillColor=#00FF00;" parent="1" vertex="1">
          <mxGeometry x="90" y="-820" width="60" height="30" as="geometry" />
        </mxCell>
        <mxCell id="1eSHTBbk4jiNIUlehk3F-81" style="edgeStyle=orthogonalEdgeStyle;rounded=0;orthogonalLoop=1;jettySize=auto;html=1;exitX=0.5;exitY=0;exitDx=0;exitDy=0;entryX=0.75;entryY=1;entryDx=0;entryDy=0;endArrow=none;endFill=0;" parent="1" source="1eSHTBbk4jiNIUlehk3F-70" target="1eSHTBbk4jiNIUlehk3F-2" edge="1">
          <mxGeometry relative="1" as="geometry" />
        </mxCell>
        <mxCell id="1eSHTBbk4jiNIUlehk3F-70" value="tipologia" style="ellipse;whiteSpace=wrap;html=1;align=center;" parent="1" vertex="1">
          <mxGeometry x="178" y="-820" width="60" height="30" as="geometry" />
        </mxCell>
        <mxCell id="1eSHTBbk4jiNIUlehk3F-89" style="edgeStyle=orthogonalEdgeStyle;rounded=0;orthogonalLoop=1;jettySize=auto;html=1;exitX=1;exitY=0.5;exitDx=0;exitDy=0;entryX=0;entryY=0.75;entryDx=0;entryDy=0;endArrow=none;endFill=0;" parent="1" source="1eSHTBbk4jiNIUlehk3F-75" target="1eSHTBbk4jiNIUlehk3F-8" edge="1">
          <mxGeometry relative="1" as="geometry" />
        </mxCell>
        <mxCell id="1eSHTBbk4jiNIUlehk3F-75" value="risposta 3" style="ellipse;whiteSpace=wrap;html=1;align=center;" parent="1" vertex="1">
          <mxGeometry x="-810" y="-500" width="60" height="30" as="geometry" />
        </mxCell>
        <mxCell id="1eSHTBbk4jiNIUlehk3F-88" style="edgeStyle=orthogonalEdgeStyle;rounded=0;orthogonalLoop=1;jettySize=auto;html=1;exitX=1;exitY=0.5;exitDx=0;exitDy=0;entryX=0;entryY=0.5;entryDx=0;entryDy=0;endArrow=none;endFill=0;" parent="1" source="1eSHTBbk4jiNIUlehk3F-76" target="1eSHTBbk4jiNIUlehk3F-8" edge="1">
          <mxGeometry relative="1" as="geometry" />
        </mxCell>
        <mxCell id="1eSHTBbk4jiNIUlehk3F-76" value="risposta 2" style="ellipse;whiteSpace=wrap;html=1;align=center;" parent="1" vertex="1">
          <mxGeometry x="-810" y="-545" width="60" height="30" as="geometry" />
        </mxCell>
        <mxCell id="1eSHTBbk4jiNIUlehk3F-87" style="edgeStyle=orthogonalEdgeStyle;rounded=0;orthogonalLoop=1;jettySize=auto;html=1;exitX=1;exitY=0.5;exitDx=0;exitDy=0;entryX=0;entryY=0.25;entryDx=0;entryDy=0;endArrow=none;endFill=0;" parent="1" source="1eSHTBbk4jiNIUlehk3F-77" target="1eSHTBbk4jiNIUlehk3F-8" edge="1">
          <mxGeometry relative="1" as="geometry" />
        </mxCell>
        <mxCell id="1eSHTBbk4jiNIUlehk3F-77" value="risposta1" style="ellipse;whiteSpace=wrap;html=1;align=center;" parent="1" vertex="1">
          <mxGeometry x="-810" y="-590" width="60" height="30" as="geometry" />
        </mxCell>
        <mxCell id="1eSHTBbk4jiNIUlehk3F-98" style="edgeStyle=orthogonalEdgeStyle;rounded=0;orthogonalLoop=1;jettySize=auto;html=1;exitX=0;exitY=0.5;exitDx=0;exitDy=0;endArrow=none;endFill=0;" parent="1" source="1eSHTBbk4jiNIUlehk3F-92" target="1eSHTBbk4jiNIUlehk3F-5" edge="1">
          <mxGeometry relative="1" as="geometry" />
        </mxCell>
        <mxCell id="1eSHTBbk4jiNIUlehk3F-92" value="hashtag" style="ellipse;whiteSpace=wrap;html=1;align=center;" parent="1" vertex="1">
          <mxGeometry x="-390" y="-220" width="60" height="30" as="geometry" />
        </mxCell>
        <mxCell id="1eSHTBbk4jiNIUlehk3F-96" style="edgeStyle=orthogonalEdgeStyle;rounded=0;orthogonalLoop=1;jettySize=auto;html=1;exitX=0;exitY=0.5;exitDx=0;exitDy=0;entryX=1;entryY=0.25;entryDx=0;entryDy=0;endArrow=none;endFill=0;" parent="1" source="1eSHTBbk4jiNIUlehk3F-93" target="1eSHTBbk4jiNIUlehk3F-5" edge="1">
          <mxGeometry relative="1" as="geometry" />
        </mxCell>
        <mxCell id="1eSHTBbk4jiNIUlehk3F-93" value="tempo inizio" style="ellipse;whiteSpace=wrap;html=1;align=center;" parent="1" vertex="1">
          <mxGeometry x="-404" y="-255" width="80" height="30" as="geometry" />
        </mxCell>
        <mxCell id="7UUg1LgOUYRZWabVoT0W-50" style="edgeStyle=orthogonalEdgeStyle;rounded=0;orthogonalLoop=1;jettySize=auto;html=1;entryX=0.149;entryY=-0.016;entryDx=0;entryDy=0;entryPerimeter=0;endArrow=none;endFill=0;" parent="1" source="1eSHTBbk4jiNIUlehk3F-101" target="1eSHTBbk4jiNIUlehk3F-11" edge="1">
          <mxGeometry relative="1" as="geometry" />
        </mxCell>
        <mxCell id="1eSHTBbk4jiNIUlehk3F-101" value="data di nascita" style="ellipse;whiteSpace=wrap;html=1;align=center;" parent="1" vertex="1">
          <mxGeometry x="200" y="-760" width="86" height="30" as="geometry" />
        </mxCell>
        <mxCell id="7UUg1LgOUYRZWabVoT0W-54" style="edgeStyle=orthogonalEdgeStyle;rounded=0;orthogonalLoop=1;jettySize=auto;html=1;entryX=1;entryY=0.917;entryDx=0;entryDy=0;entryPerimeter=0;endArrow=none;endFill=0;" parent="1" source="1eSHTBbk4jiNIUlehk3F-102" target="1eSHTBbk4jiNIUlehk3F-11" edge="1">
          <mxGeometry relative="1" as="geometry" />
        </mxCell>
        <mxCell id="1eSHTBbk4jiNIUlehk3F-102" value="stile pittorico" style="ellipse;whiteSpace=wrap;html=1;align=center;" parent="1" vertex="1">
          <mxGeometry x="414" y="-660" width="86" height="30" as="geometry" />
        </mxCell>
        <mxCell id="7UUg1LgOUYRZWabVoT0W-52" style="edgeStyle=orthogonalEdgeStyle;rounded=0;orthogonalLoop=1;jettySize=auto;html=1;entryX=0.909;entryY=0.011;entryDx=0;entryDy=0;entryPerimeter=0;endArrow=none;endFill=0;" parent="1" source="1eSHTBbk4jiNIUlehk3F-103" target="1eSHTBbk4jiNIUlehk3F-11" edge="1">
          <mxGeometry relative="1" as="geometry">
            <Array as="points">
              <mxPoint x="359" y="-720" />
            </Array>
          </mxGeometry>
        </mxCell>
        <mxCell id="1eSHTBbk4jiNIUlehk3F-103" value="movimento artistico" style="ellipse;whiteSpace=wrap;html=1;align=center;" parent="1" vertex="1">
          <mxGeometry x="414" y="-750" width="86" height="30" as="geometry" />
        </mxCell>
        <mxCell id="7UUg1LgOUYRZWabVoT0W-51" style="edgeStyle=orthogonalEdgeStyle;rounded=0;orthogonalLoop=1;jettySize=auto;html=1;entryX=0.333;entryY=0;entryDx=0;entryDy=0;entryPerimeter=0;endArrow=none;endFill=0;" parent="1" source="1eSHTBbk4jiNIUlehk3F-104" target="1eSHTBbk4jiNIUlehk3F-11" edge="1">
          <mxGeometry relative="1" as="geometry" />
        </mxCell>
        <mxCell id="1eSHTBbk4jiNIUlehk3F-104" value="nome" style="ellipse;whiteSpace=wrap;html=1;align=center;" parent="1" vertex="1">
          <mxGeometry x="300" y="-760" width="86" height="30" as="geometry" />
        </mxCell>
        <mxCell id="7UUg1LgOUYRZWabVoT0W-53" style="edgeStyle=orthogonalEdgeStyle;rounded=0;orthogonalLoop=1;jettySize=auto;html=1;entryX=0.667;entryY=1;entryDx=0;entryDy=0;entryPerimeter=0;endArrow=none;endFill=0;" parent="1" source="1eSHTBbk4jiNIUlehk3F-106" target="1eSHTBbk4jiNIUlehk3F-11" edge="1">
          <mxGeometry relative="1" as="geometry">
            <Array as="points">
              <mxPoint x="417" y="-620" />
              <mxPoint x="330" y="-620" />
            </Array>
          </mxGeometry>
        </mxCell>
        <mxCell id="1eSHTBbk4jiNIUlehk3F-106" value="Codice autore" style="ellipse;whiteSpace=wrap;html=1;align=center;fillColor=#00FF00;" parent="1" vertex="1">
          <mxGeometry x="367" y="-605" width="100" height="40" as="geometry" />
        </mxCell>
        <mxCell id="1eSHTBbk4jiNIUlehk3F-124" style="edgeStyle=orthogonalEdgeStyle;rounded=0;orthogonalLoop=1;jettySize=auto;html=1;exitX=0.5;exitY=1;exitDx=0;exitDy=0;entryX=0.75;entryY=0;entryDx=0;entryDy=0;endArrow=none;endFill=0;" parent="1" source="1eSHTBbk4jiNIUlehk3F-117" target="1eSHTBbk4jiNIUlehk3F-7" edge="1">
          <mxGeometry relative="1" as="geometry" />
        </mxCell>
        <mxCell id="1eSHTBbk4jiNIUlehk3F-117" value="titolo opera" style="ellipse;whiteSpace=wrap;html=1;align=center;fillColor=#00FF00;" parent="1" vertex="1">
          <mxGeometry x="367" y="-445" width="86" height="30" as="geometry" />
        </mxCell>
        <mxCell id="1eSHTBbk4jiNIUlehk3F-126" style="edgeStyle=orthogonalEdgeStyle;rounded=0;orthogonalLoop=1;jettySize=auto;html=1;exitX=0;exitY=0.5;exitDx=0;exitDy=0;entryX=1;entryY=0.75;entryDx=0;entryDy=0;endArrow=none;endFill=0;" parent="1" source="1eSHTBbk4jiNIUlehk3F-118" target="1eSHTBbk4jiNIUlehk3F-7" edge="1">
          <mxGeometry relative="1" as="geometry" />
        </mxCell>
        <mxCell id="1eSHTBbk4jiNIUlehk3F-118" value="descrizione" style="ellipse;whiteSpace=wrap;html=1;align=center;" parent="1" vertex="1">
          <mxGeometry x="437" y="-335" width="86" height="30" as="geometry" />
        </mxCell>
        <mxCell id="1eSHTBbk4jiNIUlehk3F-128" style="edgeStyle=orthogonalEdgeStyle;rounded=0;orthogonalLoop=1;jettySize=auto;html=1;exitX=0;exitY=0.5;exitDx=0;exitDy=0;endArrow=none;endFill=0;" parent="1" source="1eSHTBbk4jiNIUlehk3F-119" target="1eSHTBbk4jiNIUlehk3F-7" edge="1">
          <mxGeometry relative="1" as="geometry">
            <Array as="points">
              <mxPoint x="420" y="-365" />
              <mxPoint x="420" y="-335" />
            </Array>
          </mxGeometry>
        </mxCell>
        <mxCell id="1eSHTBbk4jiNIUlehk3F-119" value="anno di realizzazione" style="ellipse;whiteSpace=wrap;html=1;align=center;" parent="1" vertex="1">
          <mxGeometry x="430" y="-385" width="100" height="40" as="geometry" />
        </mxCell>
        <mxCell id="7UUg1LgOUYRZWabVoT0W-6" style="edgeStyle=orthogonalEdgeStyle;rounded=0;orthogonalLoop=1;jettySize=auto;html=1;exitX=0.5;exitY=1;exitDx=0;exitDy=0;" parent="1" source="1eSHTBbk4jiNIUlehk3F-7" target="1eSHTBbk4jiNIUlehk3F-7" edge="1">
          <mxGeometry relative="1" as="geometry" />
        </mxCell>
        <mxCell id="7UUg1LgOUYRZWabVoT0W-68" style="edgeStyle=orthogonalEdgeStyle;rounded=0;orthogonalLoop=1;jettySize=auto;html=1;entryX=0;entryY=0.5;entryDx=0;entryDy=0;endArrow=none;endFill=0;" parent="1" source="7UUg1LgOUYRZWabVoT0W-15" target="1eSHTBbk4jiNIUlehk3F-5" edge="1">
          <mxGeometry relative="1" as="geometry">
            <Array as="points">
              <mxPoint x="-850" y="-200" />
              <mxPoint x="-590" y="-200" />
            </Array>
          </mxGeometry>
        </mxCell>
        <mxCell id="xPjzsnHJoCpUdI3gdzRh-2" value="&lt;div&gt;&lt;font style=&quot;font-size: 18px;&quot;&gt;(1,1)&lt;/font&gt;&lt;/div&gt;" style="edgeLabel;html=1;align=center;verticalAlign=middle;resizable=0;points=[];" parent="7UUg1LgOUYRZWabVoT0W-68" vertex="1" connectable="0">
          <mxGeometry x="0.1533" y="5" relative="1" as="geometry">
            <mxPoint x="-5" as="offset" />
          </mxGeometry>
        </mxCell>
        <mxCell id="7UUg1LgOUYRZWabVoT0W-15" value="GESTISCE" style="rhombus;whiteSpace=wrap;html=1;" parent="1" vertex="1">
          <mxGeometry x="-890" y="-800" width="80" height="80" as="geometry" />
        </mxCell>
        <mxCell id="7UUg1LgOUYRZWabVoT0W-55" style="edgeStyle=orthogonalEdgeStyle;rounded=0;orthogonalLoop=1;jettySize=auto;html=1;entryX=1.016;entryY=0.294;entryDx=0;entryDy=0;entryPerimeter=0;endArrow=none;endFill=0;" parent="1" source="7UUg1LgOUYRZWabVoT0W-20" target="1eSHTBbk4jiNIUlehk3F-11" edge="1">
          <mxGeometry relative="1" as="geometry" />
        </mxCell>
        <mxCell id="xPjzsnHJoCpUdI3gdzRh-32" value="&lt;font style=&quot;font-size: 18px;&quot;&gt;(0,1)&lt;/font&gt;" style="edgeLabel;html=1;align=center;verticalAlign=middle;resizable=0;points=[];fontSize=12;fontFamily=Helvetica;fontColor=default;" parent="7UUg1LgOUYRZWabVoT0W-55" vertex="1" connectable="0">
          <mxGeometry x="0.2226" y="-4" relative="1" as="geometry">
            <mxPoint as="offset" />
          </mxGeometry>
        </mxCell>
        <mxCell id="7UUg1LgOUYRZWabVoT0W-20" value="data di morte" style="ellipse;whiteSpace=wrap;html=1;align=center;" parent="1" vertex="1">
          <mxGeometry x="444" y="-700" width="86" height="30" as="geometry" />
        </mxCell>
        <mxCell id="7UUg1LgOUYRZWabVoT0W-66" style="edgeStyle=orthogonalEdgeStyle;rounded=0;orthogonalLoop=1;jettySize=auto;html=1;entryX=0;entryY=0.75;entryDx=0;entryDy=0;endArrow=none;endFill=0;exitX=0.5;exitY=1;exitDx=0;exitDy=0;" parent="1" source="iQAtcwxZINuC2XT9F243-11" target="1eSHTBbk4jiNIUlehk3F-5" edge="1">
          <mxGeometry relative="1" as="geometry">
            <Array as="points">
              <mxPoint x="-1085" y="-170" />
              <mxPoint x="-590" y="-170" />
            </Array>
            <mxPoint x="-960" y="-280" as="sourcePoint" />
          </mxGeometry>
        </mxCell>
        <mxCell id="iQAtcwxZINuC2XT9F243-12" value="&lt;font style=&quot;font-size: 18px;&quot;&gt;(0,N)&lt;/font&gt;" style="edgeLabel;html=1;align=center;verticalAlign=middle;resizable=0;points=[];" parent="7UUg1LgOUYRZWabVoT0W-66" vertex="1" connectable="0">
          <mxGeometry x="-0.7377" relative="1" as="geometry">
            <mxPoint as="offset" />
          </mxGeometry>
        </mxCell>
        <mxCell id="7UUg1LgOUYRZWabVoT0W-37" value="" style="edgeStyle=orthogonalEdgeStyle;rounded=0;orthogonalLoop=1;jettySize=auto;html=1;entryX=0;entryY=0.5;entryDx=0;entryDy=0;endArrow=none;endFill=0;exitX=0.75;exitY=1;exitDx=0;exitDy=0;" parent="1" source="1eSHTBbk4jiNIUlehk3F-1" target="7UUg1LgOUYRZWabVoT0W-36" edge="1">
          <mxGeometry relative="1" as="geometry">
            <mxPoint x="-210" y="-890" as="sourcePoint" />
            <mxPoint x="110" y="-880" as="targetPoint" />
          </mxGeometry>
        </mxCell>
        <mxCell id="xPjzsnHJoCpUdI3gdzRh-9" value="&lt;font style=&quot;font-size: 18px;&quot;&gt;(0,N)&lt;/font&gt;" style="edgeLabel;html=1;align=center;verticalAlign=middle;resizable=0;points=[];" parent="7UUg1LgOUYRZWabVoT0W-37" vertex="1" connectable="0">
          <mxGeometry x="0.23" y="-3" relative="1" as="geometry">
            <mxPoint as="offset" />
          </mxGeometry>
        </mxCell>
        <mxCell id="7UUg1LgOUYRZWabVoT0W-36" value="CREA" style="rhombus;whiteSpace=wrap;html=1;" parent="1" vertex="1">
          <mxGeometry x="-70" y="-930" width="80" height="80" as="geometry" />
        </mxCell>
        <mxCell id="7UUg1LgOUYRZWabVoT0W-78" style="edgeStyle=orthogonalEdgeStyle;rounded=0;orthogonalLoop=1;jettySize=auto;html=1;entryX=0.656;entryY=0.004;entryDx=0;entryDy=0;entryPerimeter=0;endArrow=none;endFill=0;" parent="1" source="7UUg1LgOUYRZWabVoT0W-77" target="1eSHTBbk4jiNIUlehk3F-2" edge="1">
          <mxGeometry relative="1" as="geometry" />
        </mxCell>
        <mxCell id="xPjzsnHJoCpUdI3gdzRh-7" value="&lt;font style=&quot;font-size: 18px;&quot;&gt;(0,1)&lt;/font&gt;" style="edgeLabel;html=1;align=center;verticalAlign=middle;resizable=0;points=[];" parent="7UUg1LgOUYRZWabVoT0W-78" vertex="1" connectable="0">
          <mxGeometry x="0.6445" relative="1" as="geometry">
            <mxPoint as="offset" />
          </mxGeometry>
        </mxCell>
        <mxCell id="7UUg1LgOUYRZWabVoT0W-79" style="edgeStyle=orthogonalEdgeStyle;rounded=0;orthogonalLoop=1;jettySize=auto;html=1;entryX=1;entryY=0.25;entryDx=0;entryDy=0;endArrow=none;endFill=0;" parent="1" source="7UUg1LgOUYRZWabVoT0W-77" target="1eSHTBbk4jiNIUlehk3F-1" edge="1">
          <mxGeometry relative="1" as="geometry" />
        </mxCell>
        <mxCell id="7UUg1LgOUYRZWabVoT0W-107" value="&lt;font style=&quot;font-size: 18px;&quot;&gt;(0,N)&lt;/font&gt;" style="edgeLabel;html=1;align=center;verticalAlign=middle;resizable=0;points=[];" parent="7UUg1LgOUYRZWabVoT0W-79" vertex="1" connectable="0">
          <mxGeometry x="-0.37" y="-3" relative="1" as="geometry">
            <mxPoint as="offset" />
          </mxGeometry>
        </mxCell>
        <mxCell id="7UUg1LgOUYRZWabVoT0W-77" value="SUPERVISIONA" style="rhombus;whiteSpace=wrap;html=1;" parent="1" vertex="1">
          <mxGeometry x="-54.5" y="-1210" width="103" height="105" as="geometry" />
        </mxCell>
        <mxCell id="iQAtcwxZINuC2XT9F243-25" style="edgeStyle=orthogonalEdgeStyle;rounded=0;orthogonalLoop=1;jettySize=auto;html=1;endArrow=none;endFill=0;" parent="1" source="7UUg1LgOUYRZWabVoT0W-85" target="iQAtcwxZINuC2XT9F243-1" edge="1">
          <mxGeometry relative="1" as="geometry">
            <Array as="points">
              <mxPoint x="-1060" y="-790" />
              <mxPoint x="-1060" y="-790" />
            </Array>
          </mxGeometry>
        </mxCell>
        <mxCell id="7UUg1LgOUYRZWabVoT0W-85" value="commento" style="ellipse;whiteSpace=wrap;html=1;align=center;" parent="1" vertex="1">
          <mxGeometry x="-1090" y="-855" width="60" height="30" as="geometry" />
        </mxCell>
        <mxCell id="iQAtcwxZINuC2XT9F243-26" style="edgeStyle=orthogonalEdgeStyle;rounded=0;orthogonalLoop=1;jettySize=auto;html=1;entryX=0.75;entryY=0;entryDx=0;entryDy=0;endArrow=none;endFill=0;" parent="1" source="7UUg1LgOUYRZWabVoT0W-86" target="iQAtcwxZINuC2XT9F243-1" edge="1">
          <mxGeometry relative="1" as="geometry">
            <Array as="points">
              <mxPoint x="-970" y="-802" />
              <mxPoint x="-1010" y="-802" />
            </Array>
          </mxGeometry>
        </mxCell>
        <mxCell id="7UUg1LgOUYRZWabVoT0W-86" value="voto likert" style="ellipse;whiteSpace=wrap;html=1;align=center;" parent="1" vertex="1">
          <mxGeometry x="-960" y="-820" width="60" height="30" as="geometry" />
        </mxCell>
        <mxCell id="7UUg1LgOUYRZWabVoT0W-94" style="edgeStyle=orthogonalEdgeStyle;rounded=0;orthogonalLoop=1;jettySize=auto;html=1;endArrow=none;endFill=0;" parent="1" source="7UUg1LgOUYRZWabVoT0W-92" target="1eSHTBbk4jiNIUlehk3F-7" edge="1">
          <mxGeometry relative="1" as="geometry">
            <mxPoint x="307.00000000000045" y="-300" as="targetPoint" />
          </mxGeometry>
        </mxCell>
        <mxCell id="7UUg1LgOUYRZWabVoT0W-92" value="materiale" style="ellipse;whiteSpace=wrap;html=1;align=center;" parent="1" vertex="1">
          <mxGeometry x="267" y="-240" width="86" height="30" as="geometry" />
        </mxCell>
        <mxCell id="7UUg1LgOUYRZWabVoT0W-98" style="edgeStyle=orthogonalEdgeStyle;rounded=0;orthogonalLoop=1;jettySize=auto;html=1;entryX=0;entryY=0.25;entryDx=0;entryDy=0;endArrow=none;endFill=0;" parent="1" source="7UUg1LgOUYRZWabVoT0W-97" target="1eSHTBbk4jiNIUlehk3F-7" edge="1">
          <mxGeometry relative="1" as="geometry" />
        </mxCell>
        <mxCell id="7UUg1LgOUYRZWabVoT0W-111" value="&lt;font style=&quot;font-size: 18px;&quot;&gt;(0,N)&lt;/font&gt;" style="edgeLabel;html=1;align=center;verticalAlign=middle;resizable=0;points=[];" parent="7UUg1LgOUYRZWabVoT0W-98" vertex="1" connectable="0">
          <mxGeometry x="-0.7572" y="1" relative="1" as="geometry">
            <mxPoint as="offset" />
          </mxGeometry>
        </mxCell>
        <mxCell id="7UUg1LgOUYRZWabVoT0W-97" value="GENERA" style="rhombus;whiteSpace=wrap;html=1;" parent="1" vertex="1">
          <mxGeometry x="-300" y="-525" width="80" height="80" as="geometry" />
        </mxCell>
        <mxCell id="7UUg1LgOUYRZWabVoT0W-100" style="edgeStyle=orthogonalEdgeStyle;rounded=0;orthogonalLoop=1;jettySize=auto;html=1;endArrow=none;endFill=0;" parent="1" source="7UUg1LgOUYRZWabVoT0W-99" edge="1">
          <mxGeometry relative="1" as="geometry">
            <mxPoint x="-610" y="-500" as="targetPoint" />
            <Array as="points">
              <mxPoint x="-570" y="-480" />
              <mxPoint x="-610" y="-480" />
              <mxPoint x="-610" y="-500" />
            </Array>
          </mxGeometry>
        </mxCell>
        <mxCell id="7UUg1LgOUYRZWabVoT0W-99" value="emoij" style="ellipse;whiteSpace=wrap;html=1;align=center;" parent="1" vertex="1">
          <mxGeometry x="-600" y="-455" width="60" height="30" as="geometry" />
        </mxCell>
        <mxCell id="7UUg1LgOUYRZWabVoT0W-110" style="edgeStyle=orthogonalEdgeStyle;rounded=0;orthogonalLoop=1;jettySize=auto;html=1;entryX=0.417;entryY=1;entryDx=0;entryDy=0;entryPerimeter=0;endArrow=none;endFill=0;" parent="1" source="7UUg1LgOUYRZWabVoT0W-101" target="1eSHTBbk4jiNIUlehk3F-8" edge="1">
          <mxGeometry relative="1" as="geometry" />
        </mxCell>
        <mxCell id="7UUg1LgOUYRZWabVoT0W-101" value="hashtag" style="ellipse;whiteSpace=wrap;html=1;align=center;" parent="1" vertex="1">
          <mxGeometry x="-690" y="-455" width="60" height="30" as="geometry" />
        </mxCell>
        <mxCell id="xPjzsnHJoCpUdI3gdzRh-27" value="" style="verticalLabelPosition=bottom;verticalAlign=top;html=1;shape=mxgraph.basic.arc;startAngle=0.37129938929480655;endAngle=0.867105172545401;strokeColor=default;fontFamily=Helvetica;fontSize=12;fontColor=default;fillColor=default;" parent="1" vertex="1">
          <mxGeometry x="90" y="-930" width="90" height="90" as="geometry" />
        </mxCell>
        <mxCell id="xPjzsnHJoCpUdI3gdzRh-28" value="" style="ellipse;whiteSpace=wrap;html=1;aspect=fixed;strokeColor=default;fontFamily=Helvetica;fontSize=12;fontColor=default;fillColor=black;" parent="1" vertex="1">
          <mxGeometry x="90" y="-920" width="20" height="20" as="geometry" />
        </mxCell>
        <mxCell id="xPjzsnHJoCpUdI3gdzRh-33" value="" style="endArrow=none;html=1;rounded=0;fontFamily=Helvetica;fontSize=12;fontColor=default;" parent="1" edge="1">
          <mxGeometry width="50" height="50" relative="1" as="geometry">
            <mxPoint x="286" y="-380" as="sourcePoint" />
            <mxPoint x="356" y="-380" as="targetPoint" />
            <Array as="points">
              <mxPoint x="386" y="-380" />
            </Array>
          </mxGeometry>
        </mxCell>
        <mxCell id="xPjzsnHJoCpUdI3gdzRh-34" value="" style="ellipse;whiteSpace=wrap;html=1;aspect=fixed;strokeColor=default;fontFamily=Helvetica;fontSize=12;fontColor=default;fillColor=black;" parent="1" vertex="1">
          <mxGeometry x="282" y="-390" width="20" height="20" as="geometry" />
        </mxCell>
        <mxCell id="xPjzsnHJoCpUdI3gdzRh-41" value="" style="verticalLabelPosition=bottom;verticalAlign=top;html=1;shape=mxgraph.basic.arc;startAngle=0.8692300700967699;endAngle=0.3452413249366915;strokeColor=default;fontFamily=Helvetica;fontSize=12;fontColor=default;fillColor=default;" parent="1" vertex="1">
          <mxGeometry x="-720" y="-610" width="160" height="118.23" as="geometry" />
        </mxCell>
        <mxCell id="xPjzsnHJoCpUdI3gdzRh-42" value="" style="ellipse;whiteSpace=wrap;html=1;aspect=fixed;strokeColor=default;fontFamily=Helvetica;fontSize=12;fontColor=default;fillColor=black;" parent="1" vertex="1">
          <mxGeometry x="-700" y="-604" width="20" height="20" as="geometry" />
        </mxCell>
        <mxCell id="4FoowqRNrJ6sHLx4bCnh-2" style="edgeStyle=orthogonalEdgeStyle;rounded=0;orthogonalLoop=1;jettySize=auto;html=1;entryX=0.775;entryY=0.978;entryDx=0;entryDy=0;entryPerimeter=0;endArrow=none;endFill=0;" parent="1" source="4FoowqRNrJ6sHLx4bCnh-1" target="1eSHTBbk4jiNIUlehk3F-7" edge="1">
          <mxGeometry relative="1" as="geometry" />
        </mxCell>
        <mxCell id="4FoowqRNrJ6sHLx4bCnh-3" value="&lt;font style=&quot;font-size: 18px;&quot;&gt;(0,1)&lt;/font&gt;" style="edgeLabel;html=1;align=center;verticalAlign=middle;resizable=0;points=[];" parent="4FoowqRNrJ6sHLx4bCnh-2" vertex="1" connectable="0">
          <mxGeometry x="-0.2315" relative="1" as="geometry">
            <mxPoint as="offset" />
          </mxGeometry>
        </mxCell>
        <mxCell id="4FoowqRNrJ6sHLx4bCnh-1" value="online" style="ellipse;whiteSpace=wrap;html=1;align=center;" parent="1" vertex="1">
          <mxGeometry x="414" y="-270" width="86" height="30" as="geometry" />
        </mxCell>
        <mxCell id="4FoowqRNrJ6sHLx4bCnh-6" value="categoria" style="ellipse;whiteSpace=wrap;html=1;align=center;" parent="1" vertex="1">
          <mxGeometry x="-430" y="-1190" width="60" height="30" as="geometry" />
        </mxCell>
        <mxCell id="4FoowqRNrJ6sHLx4bCnh-13" style="edgeStyle=orthogonalEdgeStyle;rounded=0;orthogonalLoop=1;jettySize=auto;html=1;endArrow=none;endFill=0;" parent="1" source="4FoowqRNrJ6sHLx4bCnh-10" edge="1">
          <mxGeometry relative="1" as="geometry">
            <mxPoint x="-500" y="-220" as="targetPoint" />
          </mxGeometry>
        </mxCell>
        <mxCell id="4FoowqRNrJ6sHLx4bCnh-10" value="descrizione" style="ellipse;whiteSpace=wrap;html=1;align=center;" parent="1" vertex="1">
          <mxGeometry x="-506" y="-295" width="86" height="30" as="geometry" />
        </mxCell>
        <mxCell id="4FoowqRNrJ6sHLx4bCnh-15" value="STORIA RACCOMANDATA" style="rounded=0;whiteSpace=wrap;html=1;" parent="1" vertex="1">
          <mxGeometry x="-72" y="-115" width="120" height="60" as="geometry" />
        </mxCell>
        <mxCell id="4FoowqRNrJ6sHLx4bCnh-21" style="edgeStyle=orthogonalEdgeStyle;rounded=0;orthogonalLoop=1;jettySize=auto;html=1;entryX=1;entryY=0.75;entryDx=0;entryDy=0;endArrow=none;endFill=0;" parent="1" source="4FoowqRNrJ6sHLx4bCnh-16" target="4FoowqRNrJ6sHLx4bCnh-15" edge="1">
          <mxGeometry relative="1" as="geometry" />
        </mxCell>
        <mxCell id="4FoowqRNrJ6sHLx4bCnh-16" value="id raccomandata&amp;nbsp;&lt;br&gt;opposta" style="ellipse;whiteSpace=wrap;html=1;align=center;" parent="1" vertex="1">
          <mxGeometry x="118" y="-75" width="90" height="50" as="geometry" />
        </mxCell>
        <mxCell id="4FoowqRNrJ6sHLx4bCnh-22" style="edgeStyle=orthogonalEdgeStyle;rounded=0;orthogonalLoop=1;jettySize=auto;html=1;endArrow=none;endFill=0;" parent="1" source="4FoowqRNrJ6sHLx4bCnh-17" target="4FoowqRNrJ6sHLx4bCnh-15" edge="1">
          <mxGeometry relative="1" as="geometry" />
        </mxCell>
        <mxCell id="4FoowqRNrJ6sHLx4bCnh-17" value="Id raccomandata uguale" style="ellipse;whiteSpace=wrap;html=1;align=center;" parent="1" vertex="1">
          <mxGeometry x="119" y="-135" width="119" height="50" as="geometry" />
        </mxCell>
        <mxCell id="4FoowqRNrJ6sHLx4bCnh-20" style="edgeStyle=orthogonalEdgeStyle;rounded=0;orthogonalLoop=1;jettySize=auto;html=1;entryX=0;entryY=0.75;entryDx=0;entryDy=0;endArrow=none;endFill=0;" parent="1" source="4FoowqRNrJ6sHLx4bCnh-18" target="4FoowqRNrJ6sHLx4bCnh-15" edge="1">
          <mxGeometry relative="1" as="geometry" />
        </mxCell>
        <mxCell id="4FoowqRNrJ6sHLx4bCnh-18" value="Id raccomandata simile" style="ellipse;whiteSpace=wrap;html=1;align=center;" parent="1" vertex="1">
          <mxGeometry x="-187" y="-75" width="80" height="50" as="geometry" />
        </mxCell>
        <mxCell id="4FoowqRNrJ6sHLx4bCnh-57" style="edgeStyle=orthogonalEdgeStyle;rounded=0;orthogonalLoop=1;jettySize=auto;html=1;endArrow=none;endFill=0;" parent="1" source="4FoowqRNrJ6sHLx4bCnh-24" target="4FoowqRNrJ6sHLx4bCnh-15" edge="1">
          <mxGeometry relative="1" as="geometry">
            <Array as="points">
              <mxPoint x="-12" y="-125" />
              <mxPoint x="-12" y="-125" />
            </Array>
          </mxGeometry>
        </mxCell>
        <mxCell id="4FoowqRNrJ6sHLx4bCnh-58" value="&lt;font style=&quot;font-size: 18px;&quot;&gt;(0,N)&lt;/font&gt;" style="edgeLabel;html=1;align=center;verticalAlign=middle;resizable=0;points=[];" parent="4FoowqRNrJ6sHLx4bCnh-57" vertex="1" connectable="0">
          <mxGeometry x="-0.174" y="1" relative="1" as="geometry">
            <mxPoint x="-1" y="17" as="offset" />
          </mxGeometry>
        </mxCell>
        <mxCell id="WfHVBSSRtxg519ahMlCV-1" style="edgeStyle=orthogonalEdgeStyle;rounded=0;orthogonalLoop=1;jettySize=auto;html=1;endArrow=none;endFill=0;" parent="1" source="4FoowqRNrJ6sHLx4bCnh-24" target="4FoowqRNrJ6sHLx4bCnh-36" edge="1">
          <mxGeometry relative="1" as="geometry">
            <mxPoint x="-290" y="-50" as="targetPoint" />
            <Array as="points">
              <mxPoint x="-280" y="-245" />
              <mxPoint x="-280" y="-60" />
              <mxPoint x="-550" y="-60" />
            </Array>
          </mxGeometry>
        </mxCell>
        <mxCell id="4FoowqRNrJ6sHLx4bCnh-24" value="SUGGERISCE" style="rhombus;whiteSpace=wrap;html=1;" parent="1" vertex="1">
          <mxGeometry x="-62" y="-295" width="100" height="100" as="geometry" />
        </mxCell>
        <mxCell id="4FoowqRNrJ6sHLx4bCnh-37" value="" style="edgeStyle=orthogonalEdgeStyle;rounded=0;orthogonalLoop=1;jettySize=auto;html=1;endArrow=none;endFill=0;" parent="1" source="1eSHTBbk4jiNIUlehk3F-5" target="4FoowqRNrJ6sHLx4bCnh-36" edge="1">
          <mxGeometry relative="1" as="geometry">
            <mxPoint x="-530" y="-160" as="sourcePoint" />
            <mxPoint x="-530" y="-60" as="targetPoint" />
            <Array as="points">
              <mxPoint x="-550" y="-150" />
              <mxPoint x="-550" y="-150" />
            </Array>
          </mxGeometry>
        </mxCell>
        <mxCell id="4FoowqRNrJ6sHLx4bCnh-36" value="&lt;font style=&quot;font-size: 18px;&quot;&gt;(0,N)&lt;/font&gt;" style="text;html=1;align=center;verticalAlign=middle;resizable=0;points=[];autosize=1;strokeColor=none;fillColor=none;" parent="1" vertex="1">
          <mxGeometry x="-580" y="-130" width="60" height="40" as="geometry" />
        </mxCell>
        <mxCell id="4FoowqRNrJ6sHLx4bCnh-51" style="edgeStyle=orthogonalEdgeStyle;rounded=0;orthogonalLoop=1;jettySize=auto;html=1;entryX=0.35;entryY=0.011;entryDx=0;entryDy=0;entryPerimeter=0;endArrow=none;endFill=0;" parent="1" source="4FoowqRNrJ6sHLx4bCnh-49" target="1eSHTBbk4jiNIUlehk3F-5" edge="1">
          <mxGeometry relative="1" as="geometry" />
        </mxCell>
        <mxCell id="4FoowqRNrJ6sHLx4bCnh-49" value="id storia" style="ellipse;whiteSpace=wrap;html=1;align=center;fontStyle=4;fillColor=#00FF00;" parent="1" vertex="1">
          <mxGeometry x="-620" y="-310" width="70" height="30" as="geometry" />
        </mxCell>
        <mxCell id="4FoowqRNrJ6sHLx4bCnh-53" style="edgeStyle=orthogonalEdgeStyle;rounded=0;orthogonalLoop=1;jettySize=auto;html=1;entryX=0.163;entryY=0.002;entryDx=0;entryDy=0;entryPerimeter=0;endArrow=none;endFill=0;" parent="1" source="4FoowqRNrJ6sHLx4bCnh-52" target="4FoowqRNrJ6sHLx4bCnh-15" edge="1">
          <mxGeometry relative="1" as="geometry" />
        </mxCell>
        <mxCell id="4FoowqRNrJ6sHLx4bCnh-52" value="id storia raccomadata" style="ellipse;whiteSpace=wrap;html=1;align=center;fontStyle=4;fillColor=#00FF00;" parent="1" vertex="1">
          <mxGeometry x="-210" y="-180" width="108" height="55" as="geometry" />
        </mxCell>
        <mxCell id="4FoowqRNrJ6sHLx4bCnh-67" style="edgeStyle=orthogonalEdgeStyle;rounded=0;orthogonalLoop=1;jettySize=auto;html=1;entryX=0;entryY=0;entryDx=0;entryDy=0;endArrow=none;endFill=0;" parent="1" source="4FoowqRNrJ6sHLx4bCnh-63" target="1eSHTBbk4jiNIUlehk3F-5" edge="1">
          <mxGeometry relative="1" as="geometry">
            <Array as="points">
              <mxPoint x="-670" y="-210" />
              <mxPoint x="-590" y="-210" />
            </Array>
          </mxGeometry>
        </mxCell>
        <mxCell id="4FoowqRNrJ6sHLx4bCnh-63" value="titolo" style="ellipse;whiteSpace=wrap;html=1;align=center;" parent="1" vertex="1">
          <mxGeometry x="-710" y="-285" width="80" height="30" as="geometry" />
        </mxCell>
        <mxCell id="iQAtcwxZINuC2XT9F243-13" style="edgeStyle=orthogonalEdgeStyle;rounded=0;orthogonalLoop=1;jettySize=auto;html=1;entryX=0.5;entryY=0;entryDx=0;entryDy=0;endArrow=none;endFill=0;" parent="1" source="iQAtcwxZINuC2XT9F243-1" target="iQAtcwxZINuC2XT9F243-11" edge="1">
          <mxGeometry relative="1" as="geometry">
            <Array as="points">
              <mxPoint x="-1080" y="-450" />
            </Array>
          </mxGeometry>
        </mxCell>
        <mxCell id="iQAtcwxZINuC2XT9F243-14" value="&lt;font style=&quot;font-size: 18px;&quot;&gt;(1,1)&lt;/font&gt;" style="edgeLabel;html=1;align=center;verticalAlign=middle;resizable=0;points=[];" parent="iQAtcwxZINuC2XT9F243-13" vertex="1" connectable="0">
          <mxGeometry x="0.0919" y="1" relative="1" as="geometry">
            <mxPoint x="-1" y="28" as="offset" />
          </mxGeometry>
        </mxCell>
        <mxCell id="iQAtcwxZINuC2XT9F243-1" value="GIUDIZIO" style="rounded=0;whiteSpace=wrap;html=1;" parent="1" vertex="1">
          <mxGeometry x="-1100" y="-780" width="120" height="60" as="geometry" />
        </mxCell>
        <mxCell id="iQAtcwxZINuC2XT9F243-5" style="edgeStyle=orthogonalEdgeStyle;rounded=0;orthogonalLoop=1;jettySize=auto;html=1;endArrow=none;endFill=0;entryX=0;entryY=0.5;entryDx=0;entryDy=0;" parent="1" source="iQAtcwxZINuC2XT9F243-4" target="iQAtcwxZINuC2XT9F243-1" edge="1">
          <mxGeometry relative="1" as="geometry">
            <mxPoint x="-1130" y="-750" as="targetPoint" />
            <Array as="points">
              <mxPoint x="-1130" y="-750" />
            </Array>
          </mxGeometry>
        </mxCell>
        <mxCell id="iQAtcwxZINuC2XT9F243-8" value="&lt;font style=&quot;font-size: 18px;&quot;&gt;(1,1)&lt;/font&gt;" style="edgeLabel;html=1;align=center;verticalAlign=middle;resizable=0;points=[];" parent="iQAtcwxZINuC2XT9F243-5" vertex="1" connectable="0">
          <mxGeometry x="-0.2704" relative="1" as="geometry">
            <mxPoint y="63" as="offset" />
          </mxGeometry>
        </mxCell>
        <mxCell id="iQAtcwxZINuC2XT9F243-4" value="GIUDICA" style="rhombus;whiteSpace=wrap;html=1;" parent="1" vertex="1">
          <mxGeometry x="-1170" y="-1090" width="80" height="80" as="geometry" />
        </mxCell>
        <mxCell id="iQAtcwxZINuC2XT9F243-10" value="" style="ellipse;whiteSpace=wrap;html=1;aspect=fixed;strokeColor=default;fontFamily=Helvetica;fontSize=12;fontColor=default;fillColor=black;" parent="1" vertex="1">
          <mxGeometry x="-1030" y="-705" width="20" height="20" as="geometry" />
        </mxCell>
        <mxCell id="iQAtcwxZINuC2XT9F243-11" value="CORRISPONDE" style="rhombus;whiteSpace=wrap;html=1;" parent="1" vertex="1">
          <mxGeometry x="-1140" y="-450" width="110" height="105" as="geometry" />
        </mxCell>
        <mxCell id="iQAtcwxZINuC2XT9F243-23" value="" style="verticalLabelPosition=bottom;verticalAlign=top;html=1;shape=mxgraph.basic.arc;startAngle=0.375;endAngle=0.9039605792385689;strokeColor=default;fontFamily=Helvetica;fontSize=12;fontColor=default;fillColor=default;" parent="1" vertex="1">
          <mxGeometry x="-1140" y="-795" width="150" height="118.23" as="geometry" />
        </mxCell>
        <mxCell id="iQAtcwxZINuC2XT9F243-30" style="edgeStyle=orthogonalEdgeStyle;rounded=0;orthogonalLoop=1;jettySize=auto;html=1;endArrow=none;endFill=0;" parent="1" source="iQAtcwxZINuC2XT9F243-29" target="iQAtcwxZINuC2XT9F243-1" edge="1">
          <mxGeometry relative="1" as="geometry" />
        </mxCell>
        <mxCell id="iQAtcwxZINuC2XT9F243-31" value="&lt;font style=&quot;font-size: 18px;&quot;&gt;(0,1)&lt;/font&gt;" style="edgeLabel;html=1;align=center;verticalAlign=middle;resizable=0;points=[];" parent="iQAtcwxZINuC2XT9F243-30" vertex="1" connectable="0">
          <mxGeometry x="-0.3984" y="-3" relative="1" as="geometry">
            <mxPoint x="-23" y="1" as="offset" />
          </mxGeometry>
        </mxCell>
        <mxCell id="iQAtcwxZINuC2XT9F243-29" value="likeStoria" style="ellipse;whiteSpace=wrap;html=1;align=center;" parent="1" vertex="1">
          <mxGeometry x="-1000" y="-890" width="60" height="30" as="geometry" />
        </mxCell>
        <mxCell id="UKWrSh50oguakqqQKyy5-2" style="edgeStyle=orthogonalEdgeStyle;rounded=0;orthogonalLoop=1;jettySize=auto;html=1;entryX=0;entryY=0.25;entryDx=0;entryDy=0;endArrow=none;endFill=0;" parent="1" source="UKWrSh50oguakqqQKyy5-1" target="1eSHTBbk4jiNIUlehk3F-1" edge="1">
          <mxGeometry relative="1" as="geometry" />
        </mxCell>
        <mxCell id="UKWrSh50oguakqqQKyy5-1" value="cognome" style="ellipse;whiteSpace=wrap;html=1;align=center;" parent="1" vertex="1">
          <mxGeometry x="-600" y="-1090" width="60" height="30" as="geometry" />
        </mxCell>
      </root>
    </mxGraphModel>
  </diagram>
</mxfile>
